<?xml version='1.0' encoding='utf-8'?>
<svg xmlns="http://www.w3.org/2000/svg" width="512" height="512" viewBox="0 0 512 512" version="1.1" id="svg1"><g transform="rotate(112.5 256.0 256.0)"><defs id="defs1">
    <clipPath clipPathUnits="userSpaceOnUse" id="clipPath35-7-5">
      <path id="rect36-9-0" d="m 586.86133,-372.91714 h 65.92746 v 232.35168 h -65.92746 z" style="fill:#ffffff;fill-opacity:0;fill-rule:evenodd;stroke:#9db8ff;stroke-width:5;stroke-miterlimit:50;stroke-dasharray:none;stroke-opacity:1" />
    </clipPath>
    <clipPath clipPathUnits="userSpaceOnUse" id="clipPath33-4-0">
      <path id="rect34-3-0" d="m 496.03989,-384.40842 h 90.82147 v 227.65813 h -90.82147 z" style="fill:#ffffff;fill-opacity:0;fill-rule:evenodd;stroke:#9db8ff;stroke-width:5;stroke-miterlimit:50;stroke-dasharray:none;stroke-opacity:1" />
    </clipPath>
  </defs>
  <g id="g1" transform="matrix(1.1,0,0,1.1,-25.6,-25.6)">
    <g id="layer1" style="display:inline" />
    <g id="layer3" style="display:inline" />
    <g id="layer4" style="display:inline" />
    <g id="g41" style="display:inline" />
    <g id="g48" transform="matrix(0.69090909,0,0,0.69090909,-77.266558,540.8174)">
      <path id="path30-4-8" clip-path="url(#clipPath35-7-5)" style="fill:#7dd2c5;fill-opacity:1;fill-rule:evenodd;stroke:#9db8ff;stroke-width:5;stroke-miterlimit:50;stroke-dasharray:none;stroke-opacity:1" d="m 586.86109,-356.95784 -40.04101,65.21679 c 0,0 15.54861,18.13132 22.61914,47.06836 7.07053,28.93705 -17.86523,46.11524 -17.86523,46.11524 17.02716,8.26625 35.2871,25.65625 35.2871,25.65625 0,0 18.25995,-17.39 35.28711,-25.65625 0,0 -24.93576,-17.17819 -17.86523,-46.11524 7.07053,-28.93704 22.61914,-47.06836 22.61914,-47.06836 z m 0,144.84765 c 4.6718,-8e-5 8.45907,3.78719 8.45899,8.45899 7e-5,4.6718 -3.78719,8.45906 -8.45899,8.45898 -4.67179,7e-5 -8.45905,-3.78719 -8.45898,-8.45898 -8e-5,-4.6718 3.78718,-8.45906 8.45898,-8.45899 z" transform="translate(-104.50172,-146.64372)" />
      <path id="path31-1-9" clip-path="url(#clipPath33-4-0)" style="fill:#307d71;fill-opacity:1;fill-rule:evenodd;stroke:#9db8ff;stroke-width:5;stroke-miterlimit:50;stroke-dasharray:none;stroke-opacity:1" d="m 586.86109,-356.95784 -40.04101,65.21679 c 0,0 15.54861,18.13132 22.61914,47.06836 7.07053,28.93705 -17.86523,46.11524 -17.86523,46.11524 17.02716,8.26625 35.2871,25.65625 35.2871,25.65625 0,0 18.25995,-17.39 35.28711,-25.65625 0,0 -24.93576,-17.17819 -17.86523,-46.11524 7.07053,-28.93704 22.61914,-47.06836 22.61914,-47.06836 z m 0,144.84765 c 4.6718,-8e-5 8.45907,3.78719 8.45899,8.45899 7e-5,4.6718 -3.78719,8.45906 -8.45899,8.45898 -4.67179,7e-5 -8.45905,-3.78719 -8.45898,-8.45898 -8e-5,-4.6718 3.78718,-8.45906 8.45898,-8.45899 z" transform="translate(-104.50172,-146.64372)" />
      <path style="fill:#ffffff;fill-opacity:0;fill-rule:evenodd;stroke:#000000;stroke-width:5;stroke-miterlimit:50;stroke-dasharray:none;stroke-opacity:1" d="m 586.86133,-356.95703 -40.04102,65.2168 c 0,0 15.54861,18.13131 22.61914,47.06836 7.07053,28.93705 -17.86523,46.11523 -17.86523,46.11523 17.02716,8.26625 35.28711,25.65625 35.28711,25.65625 0,0 18.25995,-17.39 35.28711,-25.65625 0,0 -24.93577,-17.17819 -17.86524,-46.11523 7.07053,-28.93704 22.61914,-47.06836 22.61914,-47.06836 z" id="path29-1-3" transform="translate(-104.50172,-146.64372)" />
      <circle style="fill:#7dd2c5;fill-opacity:0;fill-rule:evenodd;stroke:#000000;stroke-width:5;stroke-miterlimit:50;stroke-dasharray:none;stroke-opacity:1" id="path36-3-4" cx="482.35962" cy="-350.29459" r="8.4588528" />
      <path style="fill:#7dd2c5;fill-opacity:1;fill-rule:evenodd;stroke:#000000;stroke-width:5;stroke-miterlimit:50;stroke-dasharray:none;stroke-opacity:1" d="m 482.35961,-503.60075 1e-5,144.84731" id="path43-87-4" />
    </g>
  </g>
</g></svg>